<svg xmlns="http://www.w3.org/2000/svg" viewBox="0 0 1000 260" width="100%">
  <defs>
    <style>
      .bg-rect {
        fill: #0b0f17;
        stroke: #1e293b;
        stroke-width: 1.5;
        rx: 16px;
      }
      .card {
        fill: #131b2e;
        stroke: #1e293b;
        stroke-width: 1.5;
        rx: 12px;
        transition: all 0.3s ease;
      }
      .icon-bg {
        fill: #1e293b;
        rx: 50%;
      }
      .accent-line {
        stroke: #00FF80;
        stroke-width: 2.5;
        stroke-linecap: round;
      }
      .icon-stroke {
        stroke: #00FF80;
        stroke-width: 2;
        stroke-linecap: round;
        stroke-linejoin: round;
        fill: none;
      }
      .accent-dot {
        fill: #00FF80;
      }
      .text-title {
        fill: #ffffff;
        font-family: 'Outfit', 'Segoe UI', -apple-system, sans-serif;
        font-size: 14px;
        font-weight: 700;
        letter-spacing: 0.5px;
      }
      .text-bullet {
        fill: #94a3b8;
        font-family: 'Inter', 'Segoe UI', -apple-system, sans-serif;
        font-size: 11px;
        font-weight: 500;
      }
      .text-tag {
        fill: #00FF80;
        font-family: 'Outfit', 'Segoe UI', -apple-system, sans-serif;
        font-size: 9px;
        font-weight: 800;
      }
      .tag-bg {
        fill: rgba(0, 255, 128, 0.1);
        stroke: rgba(0, 255, 128, 0.25);
        stroke-width: 1;
        rx: 4px;
      }

      /* Light Theme Responsive Styles */
      @media (prefers-color-scheme: light) {
        .bg-rect {
          fill: #f8fafc;
          stroke: #e2e8f0;
        }
        .card {
          fill: #ffffff;
          stroke: #cbd5e1;
        }
        .icon-bg {
          fill: #f1f5f9;
        }
        .accent-line {
          stroke: #059669;
        }
        .icon-stroke {
          stroke: #059669;
        }
        .accent-dot {
          fill: #059669;
        }
        .text-title {
          fill: #0f172a;
        }
        .text-bullet {
          fill: #475569;
        }
        .text-tag {
          fill: #059669;
        }
        .tag-bg {
          fill: rgba(5, 150, 105, 0.08);
          stroke: rgba(5, 150, 105, 0.2);
        }
      }
    </style>
  </defs>

  <!-- Canvas Background -->
  <rect class="bg-rect" width="1000" height="260" />

  <!-- ================= CARD 1: CURSOR NAVIGATION ================= -->
  <g transform="translate(20, 20)">
    <rect class="card" width="176" height="220" />
    <line class="accent-line" x1="16" y1="16" x2="45" y2="16" />
    
    <!-- Geometric Hand: Index Extended -->
    <g transform="translate(68, 30)">
      <circle class="icon-bg" cx="20" cy="20" r="22" />
      <g transform="translate(2, 2)">
        <!-- Extended Index Finger -->
        <rect class="icon-stroke" x="15" y="4" width="6" height="18" rx="3" />
        <!-- Folded Fingers -->
        <rect class="icon-stroke" x="21" y="12" width="6" height="10" rx="3" />
        <rect class="icon-stroke" x="27" y="14" width="6" height="8" rx="3" />
        <!-- Thumb -->
        <path class="icon-stroke" d="M7,17 C7,13 13,13 15,16" />
        <!-- Palm Base -->
        <path class="icon-stroke" d="M10,22 L10,28 C10,31 28,31 28,28 L28,20" />
      </g>
    </g>

    <!-- Tag -->
    <rect class="tag-bg" x="16" y="88" width="80" height="18" />
    <text class="text-tag" x="23" y="100">NAVIGATION</text>

    <!-- Content -->
    <text class="text-title" x="16" y="128">1. Cursor Glide</text>
    <text class="text-bullet" x="16" y="152">• Index finger fully open</text>
    <text class="text-bullet" x="16" y="172">• Other fingers folded</text>
    <text class="text-bullet" x="16" y="192">• Exponential smoothing</text>
  </g>

  <!-- ================= CARD 2: LEFT CLICK & DRAG ================= -->
  <g transform="translate(212, 20)">
    <rect class="card" width="176" height="220" />
    <line class="accent-line" x1="16" y1="16" x2="45" y2="16" />

    <!-- Geometric Hand: Pinch Latch -->
    <g transform="translate(68, 30)">
      <circle class="icon-bg" cx="20" cy="20" r="22" />
      <g transform="translate(2, 2)">
        <!-- Index Finger curving down to pinch -->
        <path class="icon-stroke" d="M11,18 C11,10 17,8 21,12" />
        <!-- Thumb curving up to pinch -->
        <path class="icon-stroke" d="M7,22 C7,18 13,14 21,12" />
        <!-- Folded Fingers -->
        <rect class="icon-stroke" x="20" y="15" width="6" height="11" rx="3" />
        <rect class="icon-stroke" x="26" y="17" width="6" height="9" rx="3" />
        <!-- Pinch Spark/Dot Indicator -->
        <circle class="accent-dot" cx="21" cy="12" r="3.5" />
        <circle class="icon-stroke" cx="21" cy="12" r="7" stroke-dasharray="2,2" />
      </g>
    </g>

    <!-- Tag -->
    <rect class="tag-bg" x="16" y="88" width="86" height="18" />
    <text class="text-tag" x="23" y="100">LEFT CLICK / DRAG</text>

    <!-- Content -->
    <text class="text-title" x="16" y="128">2. Left Click Latch</text>
    <text class="text-bullet" x="16" y="152">• Index + Thumb pinch</text>
    <text class="text-bullet" x="16" y="172">• Schmitt Trigger threshold</text>
    <text class="text-bullet" x="16" y="192">• Hold > 0.4s to Drag</text>
  </g>

  <!-- ================= CARD 3: SCROLL & RIGHT CLICK ================= -->
  <g transform="translate(404, 20)">
    <rect class="card" width="176" height="220" />
    <line class="accent-line" x1="16" y1="16" x2="45" y2="16" />

    <!-- Geometric Hand: Two Extended (Scroll) -->
    <g transform="translate(68, 30)">
      <circle class="icon-bg" cx="20" cy="20" r="22" />
      <g transform="translate(-2, 2)">
        <!-- Index Finger -->
        <rect class="icon-stroke" x="13" y="4" width="6" height="18" rx="3" />
        <!-- Middle Finger -->
        <rect class="icon-stroke" x="19" y="4" width="6" height="18" rx="3" />
        <!-- Folded Ring -->
        <rect class="icon-stroke" x="25" y="12" width="6" height="10" rx="3" />
        <!-- Thumb -->
        <path class="icon-stroke" d="M5,17 C5,13 11,13 13,16" />
        <!-- Palm Base -->
        <path class="icon-stroke" d="M8,22 L8,28 C8,31 27,31 27,28 L27,22" />
        <!-- Scroll Indicators (Arrows) -->
        <path class="icon-stroke" d="M33,9 L33,21 M30,12 L33,9 L36,12 M30,18 L33,21 L36,18" stroke-width="1.5" />
      </g>
    </g>

    <!-- Tag -->
    <rect class="tag-bg" x="16" y="88" width="84" height="18" />
    <text class="text-tag" x="23" y="100">SCROLL &amp; CLICK</text>

    <!-- Content -->
    <text class="text-title" x="16" y="128">3. Scroll &amp; Right</text>
    <text class="text-bullet" x="16" y="152">• Index + Middle open (Scroll)</text>
    <text class="text-bullet" x="16" y="172">• Middle + Thumb (Right Ck)</text>
    <text class="text-bullet" x="16" y="192">• Smooth vertical scrolling</text>
  </g>

  <!-- ================= CARD 4: ZOOM IN / OUT ================= -->
  <g transform="translate(596, 20)">
    <rect class="card" width="176" height="220" />
    <line class="accent-line" x1="16" y1="16" x2="45" y2="16" />

    <!-- Geometric Hand: 5 Extended (Zoom) -->
    <g transform="translate(68, 30)">
      <circle class="icon-bg" cx="20" cy="20" r="22" />
      <g transform="translate(0, 2)">
        <!-- Thumb -->
        <path class="icon-stroke" d="M5,18 C5,14 11,12 13,16" />
        <!-- Index -->
        <rect class="icon-stroke" x="11" y="6" width="5" height="16" rx="2.5" />
        <!-- Middle -->
        <rect class="icon-stroke" x="16" y="4" width="5" height="18" rx="2.5" />
        <!-- Ring -->
        <rect class="icon-stroke" x="21" y="6" width="5" height="16" rx="2.5" />
        <!-- Pinky -->
        <rect class="icon-stroke" x="26" y="10" width="5" height="12" rx="2.5" />
        <!-- Palm Base -->
        <path class="icon-stroke" d="M9,22 C9,26 13,28 19,28 C25,28 29,26 29,22" />
        <!-- Zoom Diagonal Outward Brackets -->
        <path class="icon-stroke" d="M4,6 L8,6 M4,6 L4,10 M32,6 L28,6 M32,6 L32,10" stroke-width="1.5" />
      </g>
    </g>

    <!-- Tag -->
    <rect class="tag-bg" x="16" y="88" width="70" height="18" />
    <text class="text-tag" x="23" y="100">DESKTOP ZOOM</text>

    <!-- Content -->
    <text class="text-title" x="16" y="128">4. Zoom Control</text>
    <text class="text-bullet" x="16" y="152">• Open 5 fingers wide</text>
    <text class="text-bullet" x="16" y="172">• Spread wide = Zoom In</text>
    <text class="text-bullet" x="16" y="192">• Pinch closer = Zoom Out</text>
  </g>

  <!-- ================= CARD 5: VOLUME DIAL ================= -->
  <g transform="translate(788, 20)">
    <rect class="card" width="176" height="220" />
    <line class="accent-line" x1="16" y1="16" x2="45" y2="16" />

    <!-- Geometric Hand: 3 Extended (Volume) -->
    <g transform="translate(68, 30)">
      <circle class="icon-bg" cx="20" cy="20" r="22" />
      <g transform="translate(-1, 2)">
        <!-- Thumb -->
        <path class="icon-stroke" d="M5,18 C5,14 11,12 13,16" />
        <!-- Index -->
        <rect class="icon-stroke" x="11" y="6" width="5" height="16" rx="2.5" />
        <!-- Middle -->
        <rect class="icon-stroke" x="16" y="4" width="5" height="18" rx="2.5" />
        <!-- Folded Ring -->
        <rect class="icon-stroke" x="21" y="12" width="5" height="10" rx="2.5" />
        <!-- Folded Pinky -->
        <rect class="icon-stroke" x="26" y="14" width="5" height="8" rx="2.5" />
        <!-- Palm Base -->
        <path class="icon-stroke" d="M9,22 C9,26 13,28 19,28 C25,28 29,26 29,22" />
        <!-- Audio Waves -->
        <path class="icon-stroke" d="M31,12 C33,14 33,18 31,20" stroke-width="1.5" />
        <path class="icon-stroke" d="M34,9 C37,12 37,20 34,23" stroke-width="1.5" stroke-dasharray="2,2" />
      </g>
    </g>

    <!-- Tag -->
    <rect class="tag-bg" x="16" y="88" width="76" height="18" />
    <text class="text-tag" x="23" y="100">SYSTEM VOLUME</text>

    <!-- Content -->
    <text class="text-title" x="16" y="128">5. Volume Dial</text>
    <text class="text-bullet" x="16" y="152">• 3 fingers open (Ring folded)</text>
    <text class="text-bullet" x="16" y="172">• Move hand up = Vol UP</text>
    <text class="text-bullet" x="16" y="192">• Move hand down = Vol DN</text>
  </g>
</svg>
